<svg version="1.1" id="Icon_Set" xmlns="http://www.w3.org/2000/svg" x="0" y="0" viewBox="0 0 256 256" style="enable-background:new 0 0 256 256" xml:space="preserve"><style>.st0{fill:#4c4372}.st2{fill:#fd919e}.st5{fill:#fff}</style><circle cx="128" cy="128" r="103.5" style="fill:#f0c48a"/><path style="fill:#a4cff2" d="M56.663 127.072h141.855v82.854H56.663z"/><path style="fill:#7babf1" d="M184.805 127.072h13.714v82.854h-13.714z"/><path class="st0" d="M198.519 212.927H56.663a3 3 0 0 1-3-3v-82.854a3 3 0 0 1 3-3h141.855a3 3 0 0 1 3 3v82.854a2.998 2.998 0 0 1-2.999 3zm-138.856-6h135.855v-76.854H59.663v76.854z"/><path class="st5" d="M128 196.887H71.195v-78.936h44.772c6.646 0 12.033 5.387 12.033 12.032v66.904zM184.805 196.887H128v-66.903c0-6.646 5.387-12.032 12.032-12.032h44.772v78.935z"/><path class="st0" d="M115.683 147.166H83.806a3 3 0 1 1 0-6h31.876a3 3 0 0 1 .001 6zM115.683 133.89H83.806a3 3 0 1 1 0-6h31.876a3 3 0 0 1 .001 6zM115.683 160.442H83.806a3 3 0 1 1 0-6h31.876a3 3 0 0 1 .001 6zM115.683 173.719H83.806a3 3 0 1 1 0-6h31.876a3 3 0 0 1 .001 6zM115.683 186.995H83.806a3 3 0 1 1 0-6h31.876a3 3 0 0 1 .001 6z"/><path style="fill:#d3e6f8" d="M174.313 117.951h10.492v78.936h-10.492z"/><path class="st0" d="M128 199.887H71.195a3 3 0 0 1-3-3v-78.936a3 3 0 0 1 3-3h44.772c8.289 0 15.033 6.743 15.033 15.032v66.903a3 3 0 0 1-3 3.001zm-53.805-6H125v-63.903c0-4.98-4.052-9.032-9.033-9.032H74.195v72.935z"/><path class="st0" d="M184.805 199.887H128a3 3 0 0 1-3-3v-66.903c0-8.289 6.743-15.032 15.032-15.032h44.772a3 3 0 0 1 3 3v78.936a2.998 2.998 0 0 1-2.999 2.999zm-53.805-6h50.805v-72.936h-41.772c-4.98 0-9.032 4.052-9.032 9.032v63.904z"/><path class="st0" d="M172.341 147.166h-31.877a3 3 0 1 1 0-6h31.877a3 3 0 1 1 0 6zM172.341 160.442h-31.877a3 3 0 1 1 0-6h31.877a3 3 0 1 1 0 6zM172.341 173.719h-31.877a3 3 0 1 1 0-6h31.877a3 3 0 1 1 0 6zM172.341 186.995h-31.877a3 3 0 1 1 0-6h31.877a3 3 0 1 1 0 6zM172.341 133.89h-31.877a3 3 0 1 1 0-6h31.877a3 3 0 1 1 0 6z"/><circle class="st2" cx="174.312" cy="81.472" r="6.791"/><path class="st0" d="M174.313 91.264c-5.399 0-9.792-4.393-9.792-9.792s4.393-9.792 9.792-9.792c5.398 0 9.791 4.393 9.791 9.792s-4.393 9.792-9.791 9.792zm0-13.584c-2.091 0-3.792 1.701-3.792 3.792s1.701 3.792 3.792 3.792 3.791-1.701 3.791-3.792-1.701-3.792-3.791-3.792z"/><circle class="st2" cx="205.31" cy="99.736" r="6.791"/><path class="st0" d="M205.31 109.528c-5.398 0-9.791-4.393-9.791-9.792s4.393-9.792 9.791-9.792c5.399 0 9.792 4.393 9.792 9.792s-4.393 9.792-9.792 9.792zm0-13.584c-2.091 0-3.791 1.701-3.791 3.792s1.7 3.792 3.791 3.792 3.792-1.701 3.792-3.792-1.702-3.792-3.792-3.792z"/><ellipse class="st5" cx="127.591" cy="78.901" rx="10.771" ry="32.827"/><ellipse transform="scale(-1) rotate(-58.72 -140.266 226.818)" class="st5" cx="127.591" cy="78.901" rx="10.771" ry="32.827"/><ellipse transform="rotate(58.72 127.595 78.901)" class="st5" cx="127.591" cy="78.901" rx="10.771" ry="32.828"/><path class="st0" d="M127.591 114.729c-9.462 0-13.771-18.571-13.771-35.827s4.31-35.828 13.771-35.828c9.041 0 13.771 18.023 13.771 35.828 0 17.255-4.309 35.827-13.771 35.827zm0-65.656c-2.324 0-7.771 10.148-7.771 29.828 0 19.679 5.447 29.827 7.771 29.827s7.771-10.148 7.771-29.827c0-19.679-5.447-29.828-7.771-29.828z"/><path class="st0" d="M149.639 101.278c-7.353 0-18.268-3.966-29.199-10.608-7.758-4.714-14.478-10.17-18.921-15.363-6.605-7.72-6.118-12.424-4.546-15.01 1.046-1.722 3.381-3.772 8.571-3.772 7.352 0 18.267 3.965 29.198 10.607 14.747 8.96 28.381 22.287 23.468 30.373-1.046 1.722-3.382 3.773-8.571 3.773zm-44.096-38.754c-2.006 0-3.174.445-3.443.888-.459.757.214 3.596 3.978 7.994 4.041 4.723 10.248 9.743 17.478 14.137 9.732 5.914 19.971 9.735 26.083 9.735 2.006 0 3.174-.446 3.443-.889 1.206-1.986-4.638-11.911-21.456-22.131-9.733-5.912-19.971-9.734-26.083-9.734z"/><path class="st0" d="M105.543 101.278s.001 0 0 0c-5.189 0-7.525-2.052-8.571-3.773-1.572-2.586-2.059-7.29 4.546-15.01 4.443-5.193 11.163-10.649 18.921-15.363 10.933-6.643 21.848-10.607 29.199-10.607 5.189 0 7.525 2.051 8.57 3.772 4.913 8.086-8.721 21.413-23.468 30.373-10.928 6.643-21.844 10.608-29.197 10.608zm44.096-38.754c-6.111 0-16.35 3.821-26.083 9.734-7.229 4.394-13.437 9.414-17.478 14.137-3.764 4.398-4.437 7.237-3.978 7.994.269.442 1.438.889 3.443.889 6.112 0 16.35-3.821 26.083-9.735 16.818-10.22 22.662-20.145 21.456-22.131-.269-.442-1.437-.888-3.443-.888z"/><circle class="st2" cx="127.591" cy="78.901" r="12.362"/><path class="st0" d="M127.591 94.264c-8.471 0-15.362-6.892-15.362-15.362s6.892-15.362 15.362-15.362 15.362 6.892 15.362 15.362-6.891 15.362-15.362 15.362zm0-24.725c-5.163 0-9.362 4.2-9.362 9.362s4.2 9.362 9.362 9.362 9.362-4.2 9.362-9.362-4.2-9.362-9.362-9.362zM174.313 120.951a3 3 0 0 1-3-3V88.264a3 3 0 1 1 6 0v29.688a3 3 0 0 1-3 2.999zM184.805 120.951a3 3 0 0 1-3-3V99.736a3 3 0 0 1 3-3h13.714a3 3 0 1 1 0 6h-10.714v15.215a3 3 0 0 1-3 3z"/><circle class="st2" cx="81.688" cy="81.472" r="6.792"/><path class="st0" d="M81.688 91.264c-5.399 0-9.792-4.393-9.792-9.792s4.393-9.792 9.792-9.792 9.792 4.393 9.792 9.792-4.393 9.792-9.792 9.792zm0-13.584c-2.091 0-3.792 1.701-3.792 3.792s1.701 3.792 3.792 3.792 3.792-1.701 3.792-3.792-1.701-3.792-3.792-3.792z"/><circle class="st2" cx="50.69" cy="99.736" r="6.792"/><path class="st0" d="M50.69 109.528c-5.399 0-9.792-4.393-9.792-9.792s4.393-9.792 9.792-9.792 9.792 4.393 9.792 9.792-4.393 9.792-9.792 9.792zm0-13.584c-2.091 0-3.792 1.701-3.792 3.792s1.701 3.792 3.792 3.792 3.792-1.701 3.792-3.792-1.701-3.792-3.792-3.792zM81.688 120.951a3 3 0 0 1-3-3V88.264a3 3 0 1 1 6 0v29.688a3 3 0 0 1-3 2.999z"/><g><path class="st0" d="M71.195 120.951a3 3 0 0 1-3-3v-15.215H57.482a3 3 0 1 1 0-6h13.713a3 3 0 0 1 3 3v18.215a3 3 0 0 1-3 3z"/></g></svg>